<svg version="1.2" xmlns="http://www.w3.org/2000/svg" viewBox="0 0 2500 2500" width="2500" height="2500">
	<title>00049</title>
	<defs>
		<linearGradient id="g1" x2="1" gradientUnits="userSpaceOnUse" gradientTransform="matrix(705.862,-705.862,705.862,705.862,544.136,1129.071)">
			<stop offset="0" stop-color="#eac024"/>
			<stop offset=".502" stop-color="#d27483"/>
			<stop offset="1" stop-color="#b61cf0"/>
		</linearGradient>
		<linearGradient id="g2" x2="1" gradientUnits="userSpaceOnUse" gradientTransform="matrix(807.301,-807.301,796.998,796.998,442.699,1129.075)">
			<stop offset="0" stop-color="#eac024"/>
			<stop offset=".502" stop-color="#d27483"/>
			<stop offset="1" stop-color="#b61cf0"/>
		</linearGradient>
	</defs>
	<style>
		.s0 { fill: url(#g1) } 
		.s1 { fill: url(#g2) } 
	</style>
	<g id="LOGO">
		<g id="&lt;Group&gt;">
			<g id="&lt;Group&gt;">
				<g id="&lt;Group&gt;">
					<g id="&lt;Group&gt;">
						<g id="&lt;Group&gt;">
							<g id="&lt;Group&gt;">
								<path id="&lt;Compound Path&gt;" fill-rule="evenodd" class="s0" d="m1602.9 1129.1c0 94.2-36.7 182.9-103.3 249.5-63 63-145.5 99.2-233.8 103.1q-7.9 0.3-15.8 0.3-7.9 0-15.8-0.3c-88.4-3.9-170.8-40.2-233.8-103.1-66.6-66.6-103.3-155.3-103.3-249.5 0-94.3 36.7-182.9 103.3-249.6 66.7-66.7 155.3-103.4 249.6-103.4 94.3 0 182.9 36.7 249.6 103.4 66.6 66.7 103.3 155.3 103.3 249.6zm-31.6 0c0-177.2-144.1-321.3-321.3-321.3-177.2 0-321.3 144.1-321.3 321.3 0 171.8 135.6 312.6 305.5 320.9v-178.2h-144.2c-6.8 22.7-27.9 39.3-52.8 39.3-30.4 0-55.1-24.7-55.1-55.1 0-30.4 24.7-55.1 55.1-55.1 24.9 0 46 16.6 52.8 39.3h144.2v-76.7h-102.3v-95.8c-22.7-6.8-39.3-27.9-39.3-52.8 0-30.4 24.8-55.2 55.2-55.2 30.4 0 55.1 24.8 55.1 55.2 0 24.9-16.6 46-39.3 52.8v64.2h70.6v-186.8c-22.7-6.8-39.3-27.9-39.3-52.8 0-30.4 24.7-55.1 55.1-55.1 30.4 0 55.1 24.7 55.1 55.1 0 24.9-16.6 46-39.3 52.8v186.8h70.6v-64.2c-22.7-6.8-39.3-27.9-39.3-52.8 0-30.4 24.7-55.2 55.1-55.2 30.4 0 55.2 24.8 55.2 55.2 0 24.9-16.6 46-39.3 52.8v95.8h-102.3v76.7h144.2c6.8-22.7 27.9-39.3 52.8-39.3 30.4 0 55.1 24.7 55.1 55.1 0 30.4-24.7 55.1-55.1 55.1-24.9 0-46-16.6-52.8-39.3h-144.2v178.2c169.9-8.3 305.5-149.1 305.5-320.9zm-297.8-236.8c0-12.9-10.6-23.5-23.5-23.5-12.9 0-23.5 10.6-23.5 23.5 0 12.9 10.6 23.5 23.5 23.5 12.9 0 23.5-10.6 23.5-23.5zm189.3 387.2c13 0 23.5-10.6 23.5-23.5 0-13-10.5-23.5-23.5-23.5-12.9 0-23.5 10.5-23.5 23.5 0 12.9 10.6 23.5 23.5 23.5zm-87.1-264.6c0-13-10.5-23.5-23.5-23.5-12.9 0-23.4 10.5-23.4 23.5 0 12.9 10.5 23.5 23.4 23.5 13 0 23.5-10.6 23.5-23.5zm-204.5 0c0-13-10.5-23.5-23.4-23.5-13 0-23.5 10.5-23.5 23.5 0 12.9 10.5 23.5 23.5 23.5 12.9 0 23.4-10.6 23.4-23.5zm-134 217.6c-13 0-23.5 10.5-23.5 23.5 0 12.9 10.5 23.5 23.5 23.5 12.9 0 23.5-10.6 23.5-23.5 0-13-10.6-23.5-23.5-23.5z"/>
							</g>
						</g>
					</g>
				</g>
				<g id="&lt;Group&gt;">
					<path id="&lt;Compound Path&gt;" fill-rule="evenodd" class="s1" d="m1653.7 1129.1c0 107.8-42 209.2-118.3 285.4-76.2 76.2-177.6 118.2-285.4 118.2-107.8 0-209.2-42-285.4-118.2-76.3-76.2-118.3-177.6-118.3-285.4 0-107.8 42-209.2 118.3-285.4 76.2-76.3 177.6-118.3 285.4-118.3 88.9 0 172.9 28.2 243.4 81.6 2.8-1.3 5.9-2.1 9.2-2.1 11.8 0 21.4 9.6 21.4 21.4 0 11.7-9.6 21.3-21.4 21.3-11.8 0-21.3-9.6-21.3-21.3 0-3 0.6-5.7 1.6-8.3-67.5-50.7-147.8-77.5-232.9-77.5-214.3 0-388.6 174.3-388.6 388.6 0 214.2 174.3 388.6 388.6 388.6 214.3 0 388.6-174.4 388.6-388.6 0-61.7-14.7-122.7-42.7-177.2q-1.1 0.2-2.2 0.2c-11.8 0-21.4-9.6-21.4-21.4 0-11.8 9.6-21.3 21.4-21.3 11.7 0 21.3 9.5 21.3 21.3 0 5.6-2.1 10.6-5.6 14.4 29 56.6 44.3 120 44.3 184zm-60-192.1c3.4 0 6.2-2.8 6.2-6.3 0-3.5-2.8-6.3-6.2-6.3-3.5 0-6.3 2.8-6.3 6.3 0 3.5 2.8 6.3 6.3 6.3zm-97.4-110.7c0 3.4 2.9 6.2 6.3 6.2 3.5 0 6.3-2.8 6.3-6.2 0-3.5-2.8-6.3-6.3-6.3-3.4 0-6.3 2.8-6.3 6.3z"/>
				</g>
			</g>
		</g>
	</g>
</svg>