<?xml version="1.0" encoding="utf-8"?>
<!-- Generator: Adobe Illustrator 27.5.0, SVG Export Plug-In . SVG Version: 6.00 Build 0)  -->
<svg version="1.1" id="Layer_1" xmlns="http://www.w3.org/2000/svg" xmlns:xlink="http://www.w3.org/1999/xlink" x="0px" y="0px"
	 viewBox="0 0 550 550" style="enable-background:new 0 0 550 550;" xml:space="preserve">
<g id="Layer_1_1_">
</g>
<linearGradient id="SVGID_1_" gradientUnits="userSpaceOnUse" x1="275" y1="517" x2="275" y2="37" gradientTransform="matrix(1 0 0 -1 0 552)">
	<stop  offset="0" style="stop-color:#126BFF"/>
	<stop  offset="1" style="stop-color:#C61BFF"/>
</linearGradient>
<path style="fill:url(#SVGID_1_);" d="M337.3,359.2H213c-12.3,0-22.4-10-22.4-22.4V213.1c0-12.3,10-22.3,22.4-22.3h124.3
	c12.3,0,22.4,10,22.4,22.3v123.7C359.7,349.2,349.6,359.2,337.3,359.2z M213,198c-8.4,0-15.2,6.8-15.2,15.1v123.7
	c0,8.4,6.8,15.2,15.2,15.2h124.3c8.4,0,15.1-6.8,15.1-15.2V213.1c0-8.4-6.8-15.1-15.1-15.1H213z M228,318.6c-0.5,0-0.9-0.1-1.4-0.3
	c-1.8-0.8-2.7-2.9-1.9-4.7l34-80c0.8-1.8,2.9-2.7,4.7-1.9c1.8,0.8,2.7,2.9,1.9,4.7l-34,80C230.7,317.8,229.4,318.6,228,318.6z
	 M296,318.6c-1.4,0-2.7-0.8-3.3-2.2l-34-80c-0.8-1.8,0.1-3.9,1.9-4.7c1.8-0.8,3.9,0.1,4.7,1.9l34,80c0.8,1.8-0.1,3.9-1.9,4.7
	C297,318.5,296.5,318.6,296,318.6z M281.5,284.3h-38.9c-2,0-3.6-1.6-3.6-3.6s1.6-3.6,3.6-3.6h38.9c2,0,3.6,1.6,3.6,3.6
	S283.5,284.3,281.5,284.3z M322.3,318.6c-2,0-3.6-1.6-3.6-3.6v-80c0-2,1.6-3.6,3.6-3.6s3.6,1.6,3.6,3.6v80
	C325.9,317,324.3,318.6,322.3,318.6z M395.8,238.6h-39.7c-2,0-3.6-1.6-3.6-3.6s1.6-3.6,3.6-3.6h39.7c2,0,3.6,1.6,3.6,3.6
	S397.7,238.6,395.8,238.6z M408.9,270.8h-52.8c-2,0-3.6-1.6-3.6-3.6s1.6-3.6,3.6-3.6h52.8c2,0,3.6,1.6,3.6,3.6
	S410.9,270.8,408.9,270.8z M395.8,303.7h-39.7c-2,0-3.6-1.6-3.6-3.6s1.6-3.6,3.6-3.6h39.7c2,0,3.6,1.6,3.6,3.6
	S397.7,303.7,395.8,303.7z M406.2,248.4c-7.4,0-13.5-6-13.5-13.5c0-7.4,6-13.5,13.5-13.5s13.5,6,13.5,13.5S413.6,248.4,406.2,248.4z
	 M406.2,228.7c-3.4,0-6.3,2.8-6.3,6.3s2.8,6.3,6.3,6.3s6.3-2.8,6.3-6.3S409.7,228.7,406.2,228.7z M406.2,313.8
	c-7.4,0-13.5-6-13.5-13.5s6-13.5,13.5-13.5s13.5,6,13.5,13.5S413.6,313.8,406.2,313.8z M406.2,294.1c-3.4,0-6.3,2.8-6.3,6.3
	s2.8,6.3,6.3,6.3s6.3-2.8,6.3-6.3S409.7,294.1,406.2,294.1z M418.7,281c-7.4,0-13.5-6-13.5-13.5c0-7.4,6-13.5,13.5-13.5
	s13.5,6,13.5,13.5S426.2,281,418.7,281z M418.7,261.3c-3.4,0-6.3,2.8-6.3,6.3c0,3.4,2.8,6.3,6.3,6.3s6.3-2.8,6.3-6.3
	S422.2,261.3,418.7,261.3z M193.9,238.6h-39.7c-2,0-3.6-1.6-3.6-3.6s1.6-3.6,3.6-3.6h39.7c2,0,3.6,1.6,3.6,3.6
	S195.9,238.6,193.9,238.6z M193.9,270.8h-52.8c-2,0-3.6-1.6-3.6-3.6s1.6-3.6,3.6-3.6h52.8c2,0,3.6,1.6,3.6,3.6
	S195.9,270.8,193.9,270.8z M193.9,303.7h-39.7c-2,0-3.6-1.6-3.6-3.6s1.6-3.6,3.6-3.6h39.7c2,0,3.6,1.6,3.6,3.6
	S195.9,303.7,193.9,303.7z M143.8,248.4c-7.4,0-13.5-6-13.5-13.5c0-7.4,6-13.5,13.5-13.5s13.5,6,13.5,13.5
	C157.2,242.4,151.2,248.4,143.8,248.4z M143.8,228.7c-3.4,0-6.3,2.8-6.3,6.3s2.8,6.3,6.3,6.3s6.3-2.8,6.3-6.3
	S147.2,228.7,143.8,228.7z M143.8,313.8c-7.4,0-13.5-6-13.5-13.5s6-13.5,13.5-13.5s13.5,6,13.5,13.5S151.2,313.8,143.8,313.8z
	 M143.8,294.1c-3.4,0-6.3,2.8-6.3,6.3s2.8,6.3,6.3,6.3s6.3-2.8,6.3-6.3S147.2,294.1,143.8,294.1z M131.3,281
	c-7.4,0-13.5-6-13.5-13.5c0-7.4,6-13.5,13.5-13.5c7.4,0,13.5,6,13.5,13.5C144.7,275,138.7,281,131.3,281z M131.3,261.3
	c-3.4,0-6.3,2.8-6.3,6.3c0,3.4,2.8,6.3,6.3,6.3s6.3-2.8,6.3-6.3C137.5,264.1,134.7,261.3,131.3,261.3z M310.4,399.4
	c-2,0-3.6-1.6-3.6-3.6v-39.7c0-2,1.6-3.6,3.6-3.6s3.6,1.6,3.6,3.6v39.7C314,397.7,312.4,399.4,310.4,399.4z M278.1,412.5
	c-2,0-3.6-1.6-3.6-3.6v-52.8c0-2,1.6-3.6,3.6-3.6s3.6,1.6,3.6,3.6v52.8C281.7,410.9,280.1,412.5,278.1,412.5z M245.3,399.4
	c-2,0-3.6-1.6-3.6-3.6v-39.7c0-2,1.6-3.6,3.6-3.6s3.6,1.6,3.6,3.6v39.7C248.9,397.7,247.3,399.4,245.3,399.4z M310.4,419.7
	c-7.4,0-13.5-6-13.5-13.5c0-7.4,6-13.5,13.5-13.5s13.5,6,13.5,13.5C323.8,413.6,317.8,419.7,310.4,419.7z M310.4,400
	c-3.4,0-6.3,2.8-6.3,6.3s2.8,6.3,6.3,6.3s6.3-2.8,6.3-6.3S313.8,400,310.4,400z M245,419.7c-7.4,0-13.5-6-13.5-13.5
	c0-7.4,6-13.5,13.5-13.5c7.4,0,13.5,6,13.5,13.5C258.4,413.6,252.4,419.7,245,419.7z M245,400c-3.4,0-6.3,2.8-6.3,6.3
	s2.8,6.3,6.3,6.3s6.3-2.8,6.3-6.3S248.4,400,245,400z M277.8,432.2c-7.4,0-13.5-6-13.5-13.5s6-13.5,13.5-13.5
	c7.4,0,13.5,6,13.5,13.5S285.3,432.2,277.8,432.2z M277.8,412.5c-3.4,0-6.3,2.8-6.3,6.3s2.8,6.3,6.3,6.3s6.3-2.8,6.3-6.3
	S281.3,412.5,277.8,412.5z M310.4,197.5c-2,0-3.6-1.6-3.6-3.6v-39.7c0-2,1.6-3.6,3.6-3.6s3.6,1.6,3.6,3.6v39.7
	C314,195.9,312.4,197.5,310.4,197.5z M278.1,197.5c-2,0-3.6-1.6-3.6-3.6v-52.8c0-2,1.6-3.6,3.6-3.6s3.6,1.6,3.6,3.6v52.8
	C281.7,195.9,280.1,197.5,278.1,197.5z M245.3,197.5c-2,0-3.6-1.6-3.6-3.6v-39.7c0-2,1.6-3.6,3.6-3.6s3.6,1.6,3.6,3.6v39.7
	C248.9,195.9,247.3,197.5,245.3,197.5z M310.4,157.2c-7.4,0-13.5-6-13.5-13.5s6-13.5,13.5-13.5s13.5,6,13.5,13.5
	S317.8,157.2,310.4,157.2z M310.4,137.5c-3.4,0-6.3,2.8-6.3,6.3s2.8,6.3,6.3,6.3s6.3-2.8,6.3-6.3S313.8,137.5,310.4,137.5z
	 M245,157.2c-7.4,0-13.5-6-13.5-13.5s6-13.5,13.5-13.5c7.4,0,13.5,6,13.5,13.5S252.4,157.2,245,157.2z M245,137.5
	c-3.4,0-6.3,2.8-6.3,6.3s2.8,6.3,6.3,6.3s6.3-2.8,6.3-6.3S248.4,137.5,245,137.5z M277.8,144.7c-7.4,0-13.5-6-13.5-13.5
	s6-13.5,13.5-13.5s13.5,6,13.5,13.5S285.3,144.7,277.8,144.7z M277.8,125c-3.4,0-6.3,2.8-6.3,6.3s2.8,6.3,6.3,6.3
	c3.4,0,6.3-2.8,6.3-6.3S281.3,125,277.8,125z M275,515c-32.4,0-63.8-6.4-93.4-18.9c-28.6-12-54.2-29.3-76.3-51.4
	c-22.1-22.1-39.4-47.7-51.4-76.3C41.4,338.8,35,307.4,35,275s6.4-63.8,18.9-93.4c12-28.6,29.3-54.2,51.4-76.3s47.7-39.4,76.3-51.4
	C211.2,41.4,242.6,35,275,35s63.8,6.4,93.4,18.9c28.5,12,54.1,29.3,76.3,51.4c22.1,22.1,39.4,47.7,51.4,76.3
	c12.5,29.6,18.9,61,18.9,93.4s-6.4,63.8-18.9,93.4c-12.1,28.6-29.4,54.2-51.4,76.3c-22.1,22.1-47.7,39.4-76.3,51.4
	C338.8,508.6,307.4,515,275,515z M275,43.3c-127.8,0-231.7,104-231.7,231.7c0,127.8,104,231.7,231.7,231.7
	c127.8,0,231.7-104,231.7-231.7C506.7,147.2,402.8,43.3,275,43.3z"/>
</svg>
