<svg version="1.2" xmlns="http://www.w3.org/2000/svg" viewBox="0 0 2000 1792" width="2000" height="1792">
	<title>link_02</title>
	<defs>
		<linearGradient id="g1" x2="1" gradientUnits="userSpaceOnUse" gradientTransform="matrix(0,-1677.36,1507.694,0,199.206,1813.862)">
			<stop offset="0" stop-color="#5263f9"/>
			<stop offset="1" stop-color="#13b2ec"/>
		</linearGradient>
		<linearGradient id="g2" x2="1" gradientUnits="userSpaceOnUse" gradientTransform="matrix(0,-1677.36,2747.869,0,225.243,1813.862)">
			<stop offset="0" stop-color="#5263f9"/>
			<stop offset="1" stop-color="#13b2ec"/>
		</linearGradient>
		<linearGradient id="g3" x2="1" gradientUnits="userSpaceOnUse" gradientTransform="matrix(0,-1677.36,3354.764,0,968.219,1813.862)">
			<stop offset="0" stop-color="#5263f9"/>
			<stop offset="1" stop-color="#13b2ec"/>
		</linearGradient>
		<linearGradient id="g4" x2="1" gradientUnits="userSpaceOnUse" gradientTransform="matrix(0,-1677.36,3354.764,0,968.219,1813.862)">
			<stop offset="0" stop-color="#5263f9"/>
			<stop offset="1" stop-color="#13b2ec"/>
		</linearGradient>
	</defs>
	<style>
		.s0 { fill: url(#g1) } 
		.s1 { fill: url(#g2) } 
		.s2 { fill: url(#g3) } 
		.s3 { fill: url(#g4) } 
	</style>
	<g id="Layer 1">
		<g id="&lt;Group&gt;">
			<path id="&lt;Compound Path&gt;" fill-rule="evenodd" class="s0" d="m2000 895.7c0 19.1-2.5 38.1-7.6 57-15.2 56.6-51.4 103.8-102.1 133-50.7 29.3-109.7 37.1-166.2 21.9-56.5-15.1-103.7-51.4-133-102-8.4-14.6-14.9-30-19.8-46h-191.9c7.2 27.3 11 55.8 11 84.7 0 91-36.9 173.5-96.7 233.4l47 81.3c16.2-3.7 32.9-5.8 49.7-5.8 120.8 0 219 98.3 219 219 0 120.8-98.2 219.1-219 219.1-120.8 0-219-98.3-219-219.1q0-6.5 0.4-13c0-1.2 0.2-2.4 0.3-3.6 0.2-3.4 0.6-6.8 1-10.1 0.1-1 0.2-2.1 0.4-3.1 0.5-4.2 1.3-8.4 2.1-12.6 0.1-0.8 0.4-1.7 0.5-2.6 0.8-3.4 1.6-6.7 2.4-10.1 0.3-1.1 0.7-2.3 1-3.5 1-3.7 2.1-7.3 3.3-10.9 0.2-0.5 0.3-0.9 0.4-1.4 1.4-4 2.9-7.9 4.6-11.8 0.4-1.1 0.8-2.1 1.3-3.2 1.3-3 2.7-6 4.1-9 0.5-0.9 0.9-2 1.4-3 1.9-3.7 3.9-7.4 6-11.1 0.3-0.6 0.6-1.1 1-1.7 1.8-3.1 3.7-6.2 5.7-9.2q1-1.5 2.1-3c1.9-3 4-5.9 6.1-8.7 0.4-0.6 0.9-1.2 1.3-1.8 2.6-3.3 5.3-6.6 8.1-9.8 0.6-0.8 1.4-1.6 2.1-2.4 1.2-1.4 2.3-2.7 3.6-4.1l-42.5-73.5c-39.5 16.6-82.9 25.9-128.3 25.9h-262.9l-27.5 47.6c1.2 1.4 2.3 2.7 3.6 4.1 0.7 0.8 1.4 1.6 2.1 2.4 2.8 3.2 5.4 6.5 8 9.8 0.5 0.6 0.9 1.2 1.4 1.8 2.1 2.8 4.1 5.7 6.1 8.7q1 1.5 2.1 3c1.9 3 3.8 6.1 5.6 9.2 0.4 0.6 0.7 1.1 1.1 1.7 2.1 3.7 4 7.3 5.9 11.1 0.6 1 1 2.1 1.5 3.1q2.1 4.3 4.1 8.9c0.4 1.1 0.9 2.1 1.3 3.2 1.7 3.9 3.1 7.8 4.5 11.8 0.2 0.5 0.3 0.9 0.5 1.4 1.2 3.6 2.3 7.2 3.3 10.9 0.3 1.2 0.6 2.4 0.9 3.5 0.9 3.4 1.7 6.7 2.4 10.1q0.3 1.3 0.6 2.6c0.8 4.2 1.5 8.4 2.1 12.6 0.2 1 0.2 2.1 0.4 3.1 0.4 3.3 0.8 6.7 1 10.1q0.2 1.8 0.2 3.6c0.3 4.4 0.5 8.7 0.5 13 0 120.8-98.2 219.1-219 219.1-120.8 0-219.1-98.3-219.1-219.1 0-120.7 98.3-219 219.1-219 16.8 0 33.4 2.1 49.7 5.8l53.4-92.5h347.1c25.8 0 50.5-4.4 73.5-12.4 31.8-11.1 60.3-29.3 83.6-52.7 7.1-7 13.7-14.6 19.8-22.5 28.5-37.4 45.4-84 45.4-134.6 0-30-6-58.7-16.8-84.7-9.7-23.5-23.2-44.9-39.9-63.5 16.7-18.7 30.3-40.1 40-63.6 0.6-1.3 1-2.6 1.6-3.9 9.7-25 15.1-52.3 15.1-80.7 0-50.6-16.9-97.3-45.5-134.7-26.1-34.2-61.9-60.6-103.3-75.1-23.1-8-47.8-12.4-73.5-12.4h-347.1l-53.4-92.7c-1.8 0.5-3.6 0.8-5.4 1.2q-1.5 0.3-3 0.6c-4.2 0.8-8.4 1.5-12.6 2-0.7 0.2-1.4 0.2-2.1 0.3-3.5 0.4-7.1 0.8-10.7 1q-1.8 0.1-3.5 0.2-5.5 0.3-11 0.4h-1.9q-6.3 0-12.7-0.4c-1.1 0-2.1-0.1-3.2-0.2-3.3-0.2-6.6-0.6-9.9-1-1.1-0.1-2.2-0.3-3.4-0.4-4.2-0.5-8.3-1.2-12.5-2-0.5-0.1-0.9-0.2-1.4-0.3-3.7-0.7-7.4-1.6-11.1-2.6-1.2-0.3-2.4-0.6-3.6-0.9-3.3-1-6.6-1.9-9.9-3-0.8-0.3-1.6-0.5-2.5-0.8q-6-2-11.9-4.5c-1-0.3-1.9-0.8-2.9-1.2-3.1-1.3-6.2-2.7-9.3-4.1-1-0.6-2.2-1.1-3.3-1.7-3.8-1.9-7.7-3.9-11.4-6.1-104.6-60.4-140.6-194.6-80.2-299.2 60.3-104.6 194.6-140.5 299.2-80.1 50.7 29.2 86.9 76.4 102 132.9 5.1 18.9 7.6 38 7.6 57.1 0 37.9-10 75.4-29.5 109.2-8.4 14.5-18.5 27.9-29.8 40.1l27.6 47.8h262.8c45.4 0 88.8 9.2 128.2 25.9l42.6-73.7c-11.4-12.2-21.5-25.6-29.9-40.1-29.3-50.7-37-109.8-21.9-166.3 15.2-56.5 51.4-103.7 102.1-132.9 50.6-29.3 109.7-37.1 166.2-21.9 56.5 15.1 103.7 51.3 133 102 19.5 33.7 29.4 71.2 29.4 109.2 0 19-2.5 38.2-7.5 57-15.1 56.5-51.4 103.7-102.1 133h-0.1c-3.7 2.2-7.5 4.2-11.4 6.1q-1.6 0.9-3.3 1.7c-3.1 1.4-6.1 2.8-9.2 4.1-1 0.4-1.9 0.9-2.9 1.2q-6 2.5-12 4.5c-0.8 0.3-1.6 0.5-2.5 0.8-3.2 1.1-6.6 2-9.9 3-1.2 0.3-2.4 0.6-3.5 0.9-3.8 1-7.5 1.9-11.3 2.6-0.4 0.1-0.8 0.2-1.2 0.3q-6.3 1.2-12.6 2c-1.1 0.2-2.2 0.3-3.3 0.4q-5 0.6-10 1-1.6 0.1-3.2 0.2c-4.2 0.3-8.4 0.4-12.7 0.4h-1.9c-3.6 0-7.2-0.2-10.9-0.4-1.2 0-2.4-0.1-3.6-0.2-3.5-0.2-7.1-0.6-10.6-1-0.7-0.1-1.5-0.1-2.2-0.3-4.2-0.5-8.4-1.2-12.5-2-1.1-0.2-2.1-0.4-3.2-0.7-1.7-0.3-3.5-0.6-5.2-1.1l-47 81.5c59.7 59.9 96.7 142.4 96.7 233.4 0 28.8-3.7 57.2-11 84.6h191.9c0.5-1.7 1.1-3.4 1.7-5.1 0.3-1 0.7-2.1 1-3.1q2-6 4.5-11.8c0.2-0.7 0.6-1.4 0.9-2.2 1.4-3.1 2.9-6.4 4.3-9.5 0.6-1.2 1.1-2.2 1.7-3.4 1.6-3.2 3.3-6.3 5-9.4q0.6-0.9 1.1-1.8c2.1-3.7 4.3-7.2 6.6-10.7 0.6-1 1.3-1.9 1.9-2.8 1.8-2.7 3.7-5.4 5.7-8 0.7-0.9 1.4-1.9 2.1-2.8 2.6-3.4 5.3-6.6 8-9.8 0.3-0.3 0.7-0.7 1-1.1 2.5-2.8 5.1-5.6 7.7-8.2q1.3-1.5 2.6-2.7 3.7-3.6 7.6-7.1c0.6-0.6 1.2-1.2 1.9-1.8 3.2-2.8 6.5-5.5 9.8-8.1 0.9-0.7 1.7-1.3 2.5-1.9 2.8-2 5.5-4 8.3-5.9q1.5-1 3.1-2.1c3.5-2.3 7.2-4.6 11-6.9 104.6-60.4 238.8-24.3 299.2 80.2 19.4 33.8 29.5 71.2 29.5 109.2zm-701.6-675.7c0 15.9 4.2 31.6 12.4 45.8 8.1 14 19.7 25.6 33.6 33.6 21.7 12.6 47.4 15.5 71.1 8.9q5.1-1.5 9.9-3.5c3.8-1.6 7.4-3.3 10.9-5.4 21.3-12.2 36.5-32 42.9-55.8 6.4-23.7 3-48.5-9.2-69.8-12.3-21.2-32.1-36.4-55.8-42.8-7.9-2.1-16-3.1-24-3.1-15.9 0-31.6 4.2-45.8 12.3-21.2 12.3-36.5 32.1-42.8 55.9-2.1 7.9-3.2 15.9-3.2 23.9zm-600.1-23.9c-6.3-23.8-21.5-43.6-42.8-55.9-43.9-25.3-100.2-10.2-125.6 33.6-25.3 44-10.2 100.3 33.7 125.6 28.4 16.4 63.6 16.4 92 0 13.9-8 25.5-19.7 33.6-33.6 12.2-21.3 15.5-46 9.1-69.7zm3.2 1376.1c0-32.7-17.7-63.2-46-79.6-13.9-8.1-29.8-12.2-45.9-12.2-50.8 0-92 41.2-92 91.8 0 50.8 41.2 92 92 92 50.7 0 91.9-41.2 91.9-92zm597 0c0 50.8 41.2 92 91.9 92 50.7 0 91.9-41.2 91.9-92 0-50.6-41.2-91.8-91.9-91.8-16.2 0-32.1 4.1-46 12.2-9.9 5.8-18.6 13.3-25.5 22-4.3 5.3-7.9 11-10.9 16.9-6.1 12.6-9.5 26.4-9.5 40.7zm561.9-722.1c-25.3-43.9-81.6-59-125.5-33.7-28.4 16.4-46 46.9-46 79.7 0 0 0 0 0 0.1 0 16 4.2 31.8 12.3 45.8 12.3 21.3 32.1 36.5 55.8 42.8 23.7 6.4 48.5 3.1 69.8-9.2 21.2-12.2 36.5-32.1 42.8-55.8 6.3-23.7 3.1-48.5-9.2-69.7z"/>
			<path id="&lt;Compound Path&gt;" fill-rule="evenodd" class="s1" d="m718 684.4v423.3h-127.1v-148.1h-162.3c-4.8 16-11.3 31.4-19.7 46-29.3 50.6-76.5 86.9-133.1 102-56.5 15.2-115.5 7.4-166.2-21.9-50.7-29.2-86.9-76.4-102-133-15.2-56.5-7.4-115.5 21.9-166.2 29.2-50.6 76.4-86.9 133-102 56.4-15.1 115.5-7.4 166.2 21.8 0.1 0.1 0.1 0.2 0.3 0.2 3.6 2.1 7.1 4.4 10.7 6.7 1 0.7 2.1 1.5 3.1 2.1 2.8 1.9 5.5 3.9 8.1 5.9 0.9 0.6 1.8 1.2 2.6 1.9 3.4 2.6 6.6 5.3 9.8 8.1 0.7 0.6 1.3 1.3 2 1.9 2.6 2.3 5 4.6 7.5 7 0.9 0.8 1.7 1.7 2.6 2.7 2.7 2.6 5.2 5.4 7.7 8.2 0.4 0.4 0.7 0.7 1.1 1.1 2.7 3.2 5.4 6.4 7.9 9.8 0.8 0.9 1.5 1.9 2.1 2.8 2 2.6 3.9 5.3 5.7 8 0.7 0.9 1.3 1.8 1.9 2.8 2.3 3.5 4.6 7 6.7 10.7 0.4 0.6 0.6 1.2 1 1.8 1.7 3.1 3.4 6.2 5.1 9.4 0.5 1.2 1 2.2 1.6 3.4 1.5 3.1 3 6.3 4.4 9.5 0.2 0.8 0.6 1.5 0.9 2.2q2.4 5.8 4.5 11.8c0.3 1 0.7 2.1 1 3.2 0.6 1.6 1.2 3.3 1.7 5h162.2v-148.1zm-406.9 211.7c0-19.7-6.4-38.5-17.6-53.9-1.8-2.7-3.9-5.1-6-7.5-6.3-7.2-13.9-13.4-22.4-18.3-21.2-12.2-46-15.5-69.7-9.2-23.7 6.4-43.6 21.6-55.8 42.9-8.2 14.1-12.4 29.8-12.4 45.8 0 8 1.1 16 3.2 23.9 3.1 11.9 8.5 22.8 15.8 32.2 7.2 9.5 16.3 17.5 27 23.6 21.2 12.3 46 15.6 69.8 9.2 23.7-6.3 43.5-21.5 55.8-42.8 8-14 12.3-29.8 12.3-45.8 0-0.1 0-0.1 0-0.1z"/>
			<path id="&lt;Path&gt;" class="s2" d="m1127.1 747.9c0-35.1-28.5-63.5-63.6-63.5h-190.6v127.1h190.6c35.1 0 63.6-28.5 63.6-63.6z"/>
			<path id="&lt;Path&gt;" class="s3" d="m872.9 1107.8h190.6c35.1 0 63.6-28.4 63.6-63.5 0-35.1-28.5-63.6-63.6-63.6h-190.6z"/>
		</g>
	</g>
</svg>