<svg width="808" height="808" viewBox="0 0 808 808" fill="none" xmlns="http://www.w3.org/2000/svg">
<g id="logo">
<path id="inner-circle" fill-rule="evenodd" clip-rule="evenodd" d="M756.902 404.101C756.902 498.301 720.202 587.001 653.602 653.601C590.602 716.601 508.102 752.801 419.802 756.701C414.535 756.901 409.268 757.001 404.002 757.001C398.735 757.001 393.468 756.901 388.202 756.701C299.802 752.801 217.402 716.501 154.402 653.601C87.8016 587.001 51.1016 498.301 51.1016 404.101C51.1016 309.801 87.8016 221.201 154.402 154.501C221.102 87.8006 309.702 51.1006 404.002 51.1006C498.302 51.1006 586.902 87.8006 653.602 154.501C720.202 221.201 756.902 309.801 756.902 404.101ZM725.302 404.101C725.302 226.901 581.202 82.8006 404.002 82.8006C226.802 82.8006 82.7016 226.901 82.7016 404.101C82.7016 575.901 218.302 716.701 388.202 725.001V546.801H244.002C237.202 569.501 216.102 586.101 191.202 586.101C160.802 586.101 136.102 561.401 136.102 531.001C136.102 500.601 160.802 475.901 191.202 475.901C216.102 475.901 237.202 492.501 244.002 515.201H388.202V438.501H285.902V342.701C263.202 335.901 246.602 314.801 246.602 289.901C246.602 259.501 271.402 234.701 301.802 234.701C332.202 234.701 356.902 259.501 356.902 289.901C356.902 314.801 340.302 335.901 317.602 342.701V406.901H388.202V220.101C365.502 213.301 348.902 192.201 348.902 167.301C348.902 136.901 373.602 112.201 404.002 112.201C434.402 112.201 459.102 136.901 459.102 167.301C459.102 192.201 442.502 213.301 419.802 220.101V406.901H490.402V342.701C467.702 335.901 451.102 314.801 451.102 289.901C451.102 259.501 475.802 234.701 506.202 234.701C536.602 234.701 561.402 259.501 561.402 289.901C561.402 314.801 544.802 335.901 522.102 342.701V438.501H419.802V515.201H564.002C570.802 492.501 591.902 475.901 616.802 475.901C647.202 475.901 671.902 500.601 671.902 531.001C671.902 561.401 647.202 586.101 616.802 586.101C591.902 586.101 570.802 569.501 564.002 546.801H419.802V725.001C589.702 716.701 725.302 575.901 725.302 404.101ZM427.502 167.301C427.502 154.401 416.902 143.801 404.002 143.801C391.102 143.801 380.502 154.401 380.502 167.301C380.502 180.201 391.102 190.801 404.002 190.801C416.902 190.801 427.502 180.201 427.502 167.301ZM616.802 554.501C629.802 554.501 640.302 543.901 640.302 531.001C640.302 518.001 629.802 507.501 616.802 507.501C603.902 507.501 593.302 518.001 593.302 531.001C593.302 543.901 603.902 554.501 616.802 554.501ZM529.702 289.901C529.702 276.901 519.202 266.401 506.202 266.401C493.302 266.401 482.802 276.901 482.802 289.901C482.802 302.801 493.302 313.401 506.202 313.401C519.202 313.401 529.702 302.801 529.702 289.901ZM325.202 289.901C325.202 276.901 314.702 266.401 301.802 266.401C288.802 266.401 278.302 276.901 278.302 289.901C278.302 302.801 288.802 313.401 301.802 313.401C314.702 313.401 325.202 302.801 325.202 289.901ZM191.202 507.501C178.202 507.501 167.702 518.001 167.702 531.001C167.702 543.901 178.202 554.501 191.202 554.501C204.102 554.501 214.702 543.901 214.702 531.001C214.702 518.001 204.102 507.501 191.202 507.501Z" fill="url(#paint0_linear_4553_54)"/>
<path id="outer-circle" fill-rule="evenodd" clip-rule="evenodd" d="M807.701 404.1C807.701 511.9 765.701 613.3 689.401 689.5C613.201 765.7 511.801 807.7 404.001 807.7C296.201 807.7 194.801 765.7 118.601 689.5C42.3008 613.3 0.300781 511.9 0.300781 404.1C0.300781 296.3 42.3008 194.9 118.601 118.7C194.801 42.4004 296.201 0.400391 404.001 0.400391C492.901 0.400391 576.901 28.6004 647.401 82.0004C650.201 80.7004 653.301 79.9004 656.601 79.9004C668.401 79.9004 678.001 89.5004 678.001 101.3C678.001 113 668.401 122.6 656.601 122.6C644.801 122.6 635.301 113 635.301 101.3C635.301 98.3004 635.901 95.6004 636.901 93.0004C569.401 42.3004 489.101 15.5004 404.001 15.5004C189.701 15.5004 15.4008 189.8 15.4008 404.1C15.4008 618.3 189.701 792.7 404.001 792.7C618.301 792.7 792.601 618.3 792.601 404.1C792.601 342.4 777.901 281.4 749.901 226.9C749.167 227.034 748.434 227.1 747.701 227.1C735.901 227.1 726.301 217.5 726.301 205.7C726.301 193.9 735.901 184.4 747.701 184.4C759.401 184.4 769.001 193.9 769.001 205.7C769.001 211.3 766.901 216.3 763.401 220.1C792.401 276.7 807.701 340.1 807.701 404.1ZM747.701 212C751.101 212 753.901 209.2 753.901 205.7C753.901 202.2 751.101 199.4 747.701 199.4C744.201 199.4 741.401 202.2 741.401 205.7C741.401 209.2 744.201 212 747.701 212ZM650.301 101.3C650.301 104.7 653.201 107.5 656.601 107.5C660.101 107.5 662.901 104.7 662.901 101.3C662.901 97.8004 660.101 95.0004 656.601 95.0004C653.201 95.0004 650.301 97.8004 650.301 101.3Z" fill="url(#paint1_linear_4553_54)"/>
</g>
<defs>
<linearGradient id="paint0_linear_4553_54" x1="-301.862" y1="404.072" x2="403.999" y2="-301.79" gradientUnits="userSpaceOnUse">
<stop stop-color="#8258C8"/>
<stop offset="1" stop-color="#2C84C8"/>
</linearGradient>
<linearGradient id="paint1_linear_4553_54" x1="-403.3" y1="404.075" x2="404.001" y2="-403.226" gradientUnits="userSpaceOnUse">
<stop stop-color="#4DB0FF"/>
<stop offset="0.502" stop-color="#8258C8"/>
<stop offset="1" stop-color="#267799"/>
</linearGradient>
</defs>
</svg>
